<?xml version="1.0" standalone="no"?>
<!DOCTYPE svg PUBLIC "-//W3C//DTD SVG 20010904//EN"
 "http://www.w3.org/TR/2001/REC-SVG-20010904/DTD/svg10.dtd">
<svg version="1.0" xmlns="http://www.w3.org/2000/svg"
 width="225.000000pt" height="225.000000pt" viewBox="0 0 225.000000 225.000000"
 preserveAspectRatio="xMidYMid meet">
<metadata>
Created by potrace 1.16, written by Peter Selinger 2001-2019
</metadata>
<g transform="translate(0.000000,225.000000) scale(0.100000,-0.100000)"
fill="#000000" stroke="none">
<path d="M1511 2190 c-100 -21 -124 -41 -477 -394 -191 -191 -358 -366 -378
-397 -20 -31 -47 -86 -60 -123 -29 -81 -31 -84 -54 -63 -26 24 -98 47 -146 47
-35 0 -48 6 -77 36 -59 61 -120 82 -188 64 -124 -33 -171 -185 -85 -279 27
-30 34 -47 34 -78 0 -95 57 -186 144 -230 43 -22 65 -27 136 -27 104 -1 161
18 215 74 l39 40 163 -162 163 -163 0 -126 c0 -133 -11 -184 -50 -240 l-21
-29 -419 0 c-367 0 -421 -2 -434 -16 -21 -20 -20 -37 2 -57 17 -16 108 -17
1109 -17 1043 0 1091 1 1106 18 21 23 21 36 1 56 -14 14 -76 16 -535 16 l-520
0 18 33 c15 27 19 63 21 222 4 217 -5 279 -49 329 l-28 33 55 12 c46 11 119
55 429 261 327 217 381 250 432 260 224 46 233 56 136 150 -66 63 -128 96
-201 106 -72 9 -135 -9 -246 -72 -53 -30 -100 -54 -104 -54 -3 0 46 53 110
118 151 152 163 175 163 312 0 91 -3 111 -23 149 -76 141 -234 221 -381 191z
m193 -114 c59 -34 103 -89 121 -150 19 -63 19 -90 -1 -157 -15 -50 -32 -71
-258 -297 -149 -151 -259 -253 -288 -269 -50 -27 -62 -44 -53 -74 14 -44 40
-33 351 147 274 159 312 178 360 182 60 5 130 -16 159 -47 19 -22 22 -20 -75
-41 -46 -10 -117 -53 -433 -263 l-378 -251 -62 -4 c-81 -5 -140 25 -180 90
-65 104 -45 179 80 309 83 86 93 105 71 127 -27 27 -55 12 -145 -81 -72 -74
-94 -104 -108 -146 -22 -66 -17 -179 10 -231 10 -19 66 -84 125 -145 59 -60
113 -120 119 -132 7 -14 11 -93 11 -218 0 -216 -5 -236 -60 -269 -25 -14 -90
-23 -90 -12 0 2 10 26 22 53 18 41 22 71 26 206 l4 159 -191 192 c-176 177
-191 195 -190 226 0 19 0 67 -1 107 -1 40 6 95 14 123 34 116 65 154 346 435
228 227 270 266 276 249 4 -10 24 -59 45 -109 l37 -90 -50 -51 c-40 -42 -49
-57 -46 -80 2 -22 9 -30 27 -32 18 -3 40 12 92 64 38 38 69 76 69 85 0 9 -25
76 -55 149 -30 73 -55 138 -55 144 0 15 77 90 109 106 75 38 176 37 245 -4z
m-1218 -931 c115 -67 106 -231 -16 -296 -52 -28 -154 -26 -211 4 -124 66 -117
255 11 306 14 5 58 10 99 10 62 1 81 -3 117 -24z"/>
</g>
</svg>
