<?xml version="1.0" standalone="no"?>
<!DOCTYPE svg PUBLIC "-//W3C//DTD SVG 20010904//EN"
 "http://www.w3.org/TR/2001/REC-SVG-20010904/DTD/svg10.dtd">
<svg version="1.0" xmlns="http://www.w3.org/2000/svg"
 width="512.000000pt" height="512.000000pt" viewBox="0 0 512.000000 512.000000"
 preserveAspectRatio="xMidYMid meet">
<metadata>
Created by potrace 1.16, written by Peter Selinger 2001-2019
</metadata>
<g transform="translate(0.000000,512.000000) scale(0.100000,-0.100000)"
fill="#000000" stroke="none">
<path d="M2811 5100 c-409 -110 -636 -541 -497 -941 37 -106 82 -174 176 -269
71 -72 101 -94 180 -132 212 -104 433 -105 645 -3 141 67 270 197 333 333 65
140 3 277 -133 298 -89 13 -167 -31 -211 -118 -46 -90 -129 -163 -216 -189
-18 -5 -60 -10 -93 -10 -236 -1 -402 250 -307 464 74 166 285 249 442 174 64
-31 132 -92 159 -145 56 -108 171 -150 271 -99 106 53 135 169 70 283 -93 165
-231 280 -409 341 -106 37 -300 43 -410 13z"/>
<path d="M282 3789 c-58 -29 -94 -85 -100 -153 -4 -50 3 -71 118 -342 117
-277 122 -291 114 -334 l-9 -45 -85 -11 c-106 -14 -127 -20 -169 -52 -49 -36
-75 -102 -68 -170 12 -110 93 -177 207 -170 33 1 60 0 60 -4 0 -3 -18 -138
-40 -300 -143 -1062 -205 -1707 -181 -1898 17 -133 77 -196 204 -215 222 -34
960 372 1421 781 l89 79 71 -70 c83 -82 145 -118 252 -145 122 -32 226 -24
344 24 l60 24 222 -58 c281 -73 508 -137 713 -201 189 -59 426 -141 421 -146
-6 -7 -266 18 -514 48 -291 35 -659 93 -982 154 -131 25 -249 45 -262 45 -24
0 -613 -120 -691 -141 -43 -11 -101 -59 -123 -101 -22 -43 -20 -128 5 -177 26
-50 87 -92 143 -98 30 -3 142 16 355 61 l312 65 178 -35 c673 -130 1160 -193
1568 -201 446 -8 597 30 681 173 35 59 44 156 20 217 -54 142 -319 289 -826
458 -190 63 -535 163 -777 225 -84 21 -153 43 -153 47 0 5 34 69 75 142 188
333 342 733 430 1118 43 189 24 261 -83 314 -44 21 -61 25 -103 20 -65 -8
-113 -38 -143 -90 -13 -23 -39 -105 -56 -182 -37 -156 -106 -374 -171 -540
-104 -262 -346 -709 -413 -760 -115 -88 -281 14 -252 157 3 17 44 96 90 177
319 557 456 978 511 1573 11 114 67 173 163 173 110 0 195 -80 376 -357 248
-380 682 -1201 967 -1828 l84 -185 185 -183 c214 -211 250 -237 330 -236 88 1
153 48 180 130 16 47 7 127 -19 162 -10 15 -93 100 -184 189 l-164 162 -68
148 c-108 235 -392 810 -504 1023 -417 786 -706 1196 -921 1303 -79 39 -185
67 -260 67 -67 0 -178 -27 -235 -56 -27 -14 -375 -137 -771 -274 -397 -137
-735 -255 -752 -264 -59 -30 -102 -106 -102 -176 1 -60 49 -131 114 -166 64
-35 100 -26 655 165 289 99 527 178 529 176 7 -7 -17 -188 -39 -305 -68 -351
-206 -697 -434 -1085 -32 -55 -72 -124 -89 -154 -101 -175 -476 -489 -890
-743 -143 -88 -374 -213 -382 -206 -10 10 51 599 117 1123 34 274 86 675 94
722 l6 31 58 -5 c116 -11 201 61 209 177 4 56 0 68 -227 601 -152 356 -240
553 -258 572 -57 60 -152 75 -231 36z"/>
</g>
</svg>
