<?xml version="1.0" standalone="no"?>
<!DOCTYPE svg PUBLIC "-//W3C//DTD SVG 20010904//EN"
 "http://www.w3.org/TR/2001/REC-SVG-20010904/DTD/svg10.dtd">
<svg version="1.0" xmlns="http://www.w3.org/2000/svg"
 width="225.000000pt" height="225.000000pt" viewBox="0 0 225.000000 225.000000"
 preserveAspectRatio="xMidYMid meet">
<metadata>
Created by potrace 1.16, written by Peter Selinger 2001-2019
</metadata>
<g transform="translate(0.000000,225.000000) scale(0.100000,-0.100000)"
fill="#000000" stroke="none">
<path d="M1750 1631 c-5 -21 -26 -59 -45 -84 -20 -26 -35 -50 -33 -54 7 -24
-225 -160 -312 -183 -53 -14 -244 -109 -318 -157 -70 -47 -104 -41 -178 29
-76 72 -73 85 24 92 42 3 106 11 142 18 36 6 116 12 177 13 73 0 117 5 125 13
9 9 0 12 -43 12 -29 0 -72 5 -93 11 -22 6 -137 12 -255 14 -225 4 -302 12
-308 32 -3 9 4 11 24 7 26 -5 30 -2 45 33 15 36 15 54 2 141 -10 68 -114 96
-173 47 -16 -14 -33 -36 -37 -48 -4 -11 -17 -30 -30 -40 -17 -13 -24 -29 -24
-53 0 -41 19 -52 57 -35 14 6 28 9 31 6 3 -2 -1 -36 -8 -75 -12 -62 -11 -74 4
-114 26 -68 94 -137 178 -181 40 -21 93 -57 118 -80 25 -23 54 -47 65 -53 16
-9 1 -12 -75 -13 -52 0 -133 -4 -180 -8 -50 -5 112 -8 390 -8 261 0 441 3 400
7 -41 4 -131 8 -199 9 -102 1 -122 3 -109 14 8 6 26 28 39 47 13 19 37 46 54
60 16 14 62 55 102 92 40 38 81 68 92 68 11 0 46 10 78 22 45 16 74 38 135 99
72 73 80 78 103 69 32 -12 82 -13 89 -1 3 4 6 60 8 123 2 85 -1 120 -11 132
-22 26 -40 18 -51 -23z"/>
</g>
</svg>
